<svg id="Layer_1" data-name="Layer 1" xmlns="http://www.w3.org/2000/svg" xmlns:xlink="http://www.w3.org/1999/xlink" viewBox="0 0 1519.98 484.81"><defs><linearGradient id="linear-gradient" x1="33.43" y1="750.62" x2="352.18" y2="311.34" gradientTransform="translate(-18.33 -364.28)" gradientUnits="userSpaceOnUse"><stop offset="0" stop-color="#b27b3a"/><stop offset="0.51" stop-color="#fedd8e"/><stop offset="1" stop-color="#6c4b23"/></linearGradient><linearGradient id="linear-gradient-2" x1="45.2" y1="759.16" x2="363.95" y2="319.88" xlink:href="#linear-gradient"/><linearGradient id="linear-gradient-3" x1="75.91" y1="781.45" x2="394.66" y2="342.17" xlink:href="#linear-gradient"/><linearGradient id="linear-gradient-4" x1="146.15" y1="832.41" x2="464.9" y2="393.13" xlink:href="#linear-gradient"/><linearGradient id="linear-gradient-5" x1="113.31" y1="808.58" x2="432.06" y2="369.3" gradientTransform="translate(-3.57 -346.6)" xlink:href="#linear-gradient"/><linearGradient id="linear-gradient-6" x1="113.91" y1="809.01" x2="432.66" y2="369.74" gradientTransform="translate(-3.57 -346.6)" xlink:href="#linear-gradient"/><linearGradient id="linear-gradient-7" x1="113.37" y1="808.61" x2="432.12" y2="369.34" gradientTransform="translate(-3.57 -346.6)" xlink:href="#linear-gradient"/></defs><polygon points="143.13 289.8 143.13 145.31 123.72 156.74 123.72 289.8 143.13 289.8" fill="url(#linear-gradient)"/><polygon points="164.63 289.8 164.63 132.53 149.03 141.75 149.03 289.8 164.63 289.8" fill="url(#linear-gradient-2)"/><polygon points="246.09 289.8 246.09 209.57 263.66 198.63 263.66 79.58 300.65 108.45 300.65 101.2 262.19 72.08 200.88 106.73 200.88 128.6 184.17 120.98 170.53 129.09 170.53 289.8 188.1 289.8 188.1 130.32 228.4 152.8 228.4 289.8 246.09 289.8" fill="url(#linear-gradient-3)"/><polygon points="317.97 185.12 360.11 210.3 360.11 202.93 317.97 176.52 253.34 211.41 253.34 289.8 317.97 289.8 317.97 185.12" fill="url(#linear-gradient-4)"/><path d="M256.56,40.86C135.9,40.86,37.73,139,37.73,259.69S135.9,478.51,256.56,478.51c91.28,0,169.67-56.27,202.48-135.89H142.41a51,51,0,0,0,7.87,11.43H441c-1,2-2.09,3.93-3.2,5.89a210.77,210.77,0,0,1-34.89,46.2C322,487,190.83,487,110,406.09s-80.85-212,.05-292.91A207.11,207.11,0,0,1,463.09,245.8h11.67C467.76,131.68,372.54,40.86,256.56,40.86Z" transform="translate(-14.76 -17.68)" fill="url(#linear-gradient-5)"/><path d="M138.24,319.77A38.22,38.22,0,0,0,140,336.85h327.8c-.74,2-1.47,3.93-2.21,5.89-45.64,116-176.66,173-292.63,127.36S-.08,293.44,45.56,177.46,222.22,4.47,338.19,50.11A225.66,225.66,0,0,1,480.78,245.93h17.57c-3.19-62.42-31.57-122-77.52-164.27-43.13-39.57-100.14-62.91-158.74-64H256.8A246.91,246.91,0,0,0,220,20.47c-2,.24-4.05.61-5.89,1-6.89,1.23-13.77,2.83-20.52,4.67-1.72.49-3.57,1-5.78,1.6A222,222,0,0,0,157.3,39.16c-1.84.86-3.56,1.6-5.28,2.46-6.15,3-12.17,6.27-18.06,9.71-1.6,1-3.32,2-5,3.07A26.56,26.56,0,0,0,126.5,56c-2,1.23-3.44,2.21-4.91,3.19l-2.46,1.6c-6.39,4.42-12.65,9.21-18.43,14.13-1.35,1.1-2.7,2.21-4.42,3.81C92.59,82,89,85.36,85.71,88.73a240.59,240.59,0,0,0-70.95,171.2A244.64,244.64,0,0,0,17,292.61l.25,2a235,235,0,0,0,8,35.75c1.6,5.29,3.32,10.45,5.16,15.36,0,.13.12.25.12.37a248.07,248.07,0,0,0,10.82,24.33l2.58,4.79c1.59,3,3.31,6.14,5.28,9.34v.13c.86,1.48,1.84,3,2.83,4.55,2.08,3.31,4,6.14,5.89,9q4.62,6.63,9.59,12.9c1.23,1.47,2.45,2.95,3.31,4.05s1.85,2.21,2.83,3.32a2.91,2.91,0,0,1,.61.74c1.11,1.22,2.09,2.45,3.2,3.68l.37.37c2.58,2.83,4.91,5.28,7.37,7.74s4.79,4.67,7.62,7.37c1.1,1,2.45,2.34,3.93,3.57,2.7,2.33,5.4,4.66,8.23,6.88,1.35,1.1,2.83,2.21,4.18,3.31s2.82,2.09,4.3,3.2,2.82,2.09,4.18,3.07c.12.12.12.12.24.12,1.48,1,2.83,2,4.3,2.95l4.43,2.95c1.35.86,2.7,1.72,4.54,2.83l.37.24c1.47.86,2.83,1.72,4.18,2.46.24.12.37.24.61.37h.12c1.36.73,2.71,1.47,3.94,2.21a.37.37,0,0,0,.24.12c1.48.86,3.07,1.72,4.67,2.46s3.2,1.6,4.79,2.46a47,47,0,0,0,4.43,2.09l.24.12h.12l.13.12c1.23.62,2.58,1.23,4.17,2l2.83,1.23c1,.36,1.84.86,2.83,1.22,1.59.62,3.19,1.23,4.91,2a4.58,4.58,0,0,1,1.11.49c1.35.49,2.82,1,4.17,1.6s3,1,4.3,1.47l1.11.37c1.47.49,3,1,4.55,1.48h.36c1.48.49,2.95.86,4.67,1.35h.25a1.08,1.08,0,0,0,.61.12l.37.12c1.6.49,3.2.86,4.67,1.23,1.72.49,3.56.86,5.28,1.35l.5.13c1.59.36,3.07.73,4.66,1a.46.46,0,0,1,.37.12l.25.12c1.35.25,2.7.62,4,.86l.37.13c.25,0,.37.12.62.12h.24c1.84.37,3.32.61,4.79.86h.13a3.41,3.41,0,0,0,1.1.12h.25c1.23.25,2.46.37,4.05.62h.25a1.08,1.08,0,0,1,.61.12c1.72.25,3.57.49,5.41.74,1.35.12,2.82.37,4.54.49a8.25,8.25,0,0,0,1.72.12h.37c1.23.12,2.46.25,3.69.25h0l1,.12c1.48.12,3.2.25,5.16.37h1c1.59.12,3.07.12,4.66.12h1.23c1.6,0,3.2.12,5.16.12h5.29c108.49-2.33,202.6-77.15,229.39-182.08H394C310.74,319.77,221.05,319.77,138.24,319.77Z" transform="translate(-14.76 -17.68)" fill="url(#linear-gradient-6)"/><path d="M256.56,58.56c-111,0-201.26,90.3-201.26,201.25s90.31,201.25,201.26,201.25a201.18,201.18,0,0,0,174.34-101H156.3a64.63,64.63,0,0,0,14.5,9.21c19.29,8.6,41.16,8.73,62.29,8.6,52.09-.24,111.31-.49,163.41-.86-39.44,47.06-103.94,71.88-164.76,63.4S115.63,390.54,90.57,334.51C65.5,278.24,71.28,209.44,105.43,158.45s95.47-82.69,156.9-81a163.41,163.41,0,0,1,29,3.32,185.86,185.86,0,0,1,84.77,41.65C400,143,418.86,169.68,428.44,199.73a197.5,197.5,0,0,1,8.85,46.2h20.15C450.19,141.37,362.83,58.56,256.56,58.56Z" transform="translate(-14.76 -17.68)" fill="url(#linear-gradient-7)"/><path d="M591.5,239.28h50l.12,6.88c0,11.91-1.72,20.27-5.28,24.94s-11.18,7.12-23.22,7.12H580.81c-14.62,0-24.2-2.21-29-6.51s-7-13.76-7-28.13v-4.3c0-15,1.72-25.31,5.29-30.84s12.14-8.36,25.68-8.36l19.46-.24,9.34-.13,15.35.62c7.38,0,12.66,1.84,15.73,5.53s4.58,9.46,4.58,17.2h-9.18c0-6.76-1.47-10.94-4.3-12.53s-8.1-2.34-15.85-2.34l-15.67-.12-9.09-.12-15.12.61c-5.89.49-9.95,1.6-12.41,3.32s-3.68,5.89-3.68,12.65l-.49,19.78c0,8.36.61,14.62,1.84,18.92s7.37,6.52,18.68,6.52l19.65.24,8.36.13h1.72a136.45,136.45,0,0,0,14-.86c5.77-.5,9.46-2.34,10.93-5.53S632,255,632,247.14H591.62v-7.86Z" transform="translate(-14.76 -17.68)"/><path d="M657.73,277.24H646.79l45.45-76.86h12.3l45.83,76.91H739.68L729.48,260h-61.8Zm14.51-24.94H725l-26.54-45.09Z" transform="translate(-14.76 -17.68)"/><path d="M829,277.24H758.84V200.38h9.34v69.17H829Z" transform="translate(-14.76 -17.68)"/><path d="M839.93,277.24H829l45.46-76.86h12.29l45.83,76.91H921.89L911.69,260h-61.8Zm14.5-24.94h52.71L880.6,207.21Z" transform="translate(-14.76 -17.68)"/><path d="M1026.81,200.38l-39.93,36.49,44.48,40.42h-14L980,243.14l-37.23,34.15h-14l44.35-40.42-40.06-36.49H946.7l33.18,30.1,33-30.1Z" transform="translate(-14.76 -17.68)"/><path d="M1125.6,200.38l-44.36,44.18v32.68h-9.34V244.56l-44.23-44.11h13.27l35.63,36.12,35.76-36.19Z" transform="translate(-14.76 -17.68)"/><path d="M1236.67,233.62v7.76h-64.51v28.14h67.7v7.74h-77V200.38H1239v7.86h-66.88v25.43Z" transform="translate(-14.76 -17.68)"/><path d="M1328.45,277.24h-70.16V200.38h9.34v69.17h60.82Z" transform="translate(-14.76 -17.68)"/><path d="M1350.81,277.24h-9.34V200.38h9.34Z" transform="translate(-14.76 -17.68)"/><path d="M1399.46,277.24V208.19h-38.7v-7.81h87v7.86h-39v69.05Z" transform="translate(-14.76 -17.68)"/><path d="M1531.54,233.62v7.76H1467v28.14h67.7v7.74h-77V200.38h76.18v7.86H1467v25.43Z" transform="translate(-14.76 -17.68)"/><path d="M804.67,323.19c0,3.44-.49,5.78-1.47,7.13s-3.2,2.21-6.64,2.7a13.24,13.24,0,0,1,5.66,1.85c1.22.86,1.84,2.58,1.84,4.91v10.44h-4.55v-8.6c0-2.82-.61-4.67-1.84-5.65s-3.32-1.35-6.27-1.35H765.24V350.1h-4.67V311.77h31.09c4.67,0,8,.73,10,2.33S804.67,318.65,804.67,323.19Zm-4.79-.37c0-2.94-.74-4.91-2.09-5.77s-3.81-1.35-7-1.35H765.24v15h25.68c3.32,0,5.65-.49,7-1.6s2-3.08,2-6.28Z" transform="translate(-14.76 -17.68)"/><path d="M858.61,328.38v3.81H826.54v14h33.7V350H821.87V311.64h38v3.94H826.54v12.65h32.07Z" transform="translate(-14.76 -17.68)"/><path d="M876.43,350.1H871l22.61-38.33h6.14l22.85,38.33h-5.28l-5-8.6H881.59Zm7.24-12.41H910L896.7,315.21Z" transform="translate(-14.76 -17.68)"/><path d="M969.68,350.1H934.79V311.77h4.67v34.4h30.22Z" transform="translate(-14.76 -17.68)"/><path d="M1043.4,328.38v3.81h-32.07v14H1045V350h-38.34V311.64h38v3.94h-33.3v12.65h32.07Z" transform="translate(-14.76 -17.68)"/><path d="M1097.09,316.8a16.39,16.39,0,0,0-4.42-1,73.14,73.14,0,0,0-8.11-.37H1083c-2.58,0-5.16.13-7.86.37a22.79,22.79,0,0,0-5.9,1.11,3.75,3.75,0,0,0-2.33,2.21,9.36,9.36,0,0,0-.49,3.32c0,2.33.61,3.93,2,4.79a10.53,10.53,0,0,0,5.65,1.23h17.33c1.23,0,3.07.24,5.53.49a10,10,0,0,1,6,2.58c1.47,1.47,2.21,3.93,2.21,7.49a12.91,12.91,0,0,1-1.11,5.78,6.77,6.77,0,0,1-3.68,3.44,21.47,21.47,0,0,1-6.27,1.47q-4.05.39-8.11.37h-3.09c-2.83,0-5,0-6.51-.12a44.82,44.82,0,0,1-6.64-.74,9.61,9.61,0,0,1-6.39-3.07q-1.85-2.58-1.84-8.85h4.67v.86a14,14,0,0,0,.49,4.55,4.15,4.15,0,0,0,2.83,2.21,23.89,23.89,0,0,0,6,.86c2.58.12,5,.25,7.49.25a79,79,0,0,0,10.08-.5c2.7-.36,4.54-1,5.65-2s1.47-2.58,1.47-4.79c0-2.83-.61-4.55-2-5.29s-3.44-1.1-6.51-1.1h-8.73l-10.32-.25c-3.56,0-6.39-.74-8.35-2.09s-3-3.68-3-7a14.7,14.7,0,0,1,1.23-6.51,7.18,7.18,0,0,1,4.3-3.69,27.93,27.93,0,0,1,7.12-1.47c2.71-.25,5.78-.37,9.09-.37,2.83,0,4.8,0,6,.12s3.31.25,6,.49a9.06,9.06,0,0,1,6.38,3.08c1.48,1.72,2.22,4.3,2.22,7.86H1099a12.12,12.12,0,0,0-.62-4.18C1098.44,317.79,1097.83,317.17,1097.09,316.8Z" transform="translate(-14.76 -17.68)"/><path d="M1135.79,350.1V315.7H1116.5v-3.93h43.38v3.93h-19.42v34.4Z" transform="translate(-14.76 -17.68)"/><path d="M1171.79,350.1h-5.4l22.6-38.33h6.15L1218,350.1h-5.28l-5-8.6H1177Zm7.25-12.41h26.3l-13.27-22.48Z" transform="translate(-14.76 -17.68)"/><path d="M1243.79,350.1V315.7H1224.5v-3.93h43.37v3.93h-19.41v34.4Z" transform="translate(-14.76 -17.68)"/><path d="M1317.51,328.38v3.81h-32.07v14h33.67V350h-38.34V311.64h38v3.94h-33.33v12.65h32.07Z" transform="translate(-14.76 -17.68)"/></svg>